<svg id="svg" xmlns="http://www.w3.org/2000/svg" xmlns:xlink="http://www.w3.org/1999/xlink" viewBox="0, 0, 400, 36.65128543177323"><g id="svgg"><path id="path0" d="M113.909 1.459 C 113.909 1.681,113.731 1.931,113.514 2.014 C 113.296 2.098,113.118 2.454,113.118 2.805 C 113.118 3.157,112.940 3.513,112.722 3.596 C 112.502 3.681,112.327 4.073,112.327 4.483 C 112.327 4.892,112.152 5.284,111.931 5.369 C 111.670 5.469,111.536 5.882,111.536 6.584 C 111.536 7.353,111.427 7.647,111.140 7.647 C 110.856 7.647,110.745 7.938,110.745 8.683 C 110.745 9.252,110.586 9.877,110.392 10.071 C 110.190 10.273,109.971 11.322,109.880 12.524 C 109.793 13.679,109.596 14.666,109.442 14.717 C 109.289 14.768,109.163 15.160,109.163 15.587 C 109.163 16.035,108.995 16.429,108.767 16.516 C 108.542 16.603,108.372 16.996,108.372 17.431 C 108.372 17.933,108.237 18.194,107.976 18.194 C 107.652 18.194,107.581 18.648,107.581 20.699 C 107.581 22.076,107.691 23.204,107.827 23.204 C 107.962 23.204,108.152 23.453,108.248 23.757 C 108.450 24.394,109.302 25.313,109.690 25.313 C 109.835 25.313,109.954 25.491,109.954 25.709 C 109.954 25.930,110.189 26.104,110.489 26.104 C 110.784 26.104,111.093 26.282,111.177 26.500 C 111.272 26.749,111.685 26.898,112.289 26.904 C 113.144 26.911,113.199 26.950,112.788 27.262 C 112.433 27.532,112.328 27.999,112.331 29.297 C 112.333 30.333,112.422 30.845,112.560 30.627 C 112.718 30.378,112.841 30.564,112.969 31.245 C 113.071 31.789,113.485 32.546,113.908 32.959 C 114.324 33.366,114.593 33.770,114.507 33.856 C 114.420 33.943,114.609 34.015,114.928 34.015 C 115.247 34.015,115.576 34.192,115.659 34.410 C 115.743 34.628,116.040 34.806,116.319 34.806 C 116.598 34.806,116.894 34.984,116.978 35.201 C 117.095 35.507,117.606 35.597,119.226 35.597 C 120.393 35.597,121.258 35.492,121.177 35.361 C 120.976 35.034,121.672 34.806,122.867 34.806 C 123.517 34.806,123.926 34.666,124.024 34.410 C 124.108 34.192,124.358 34.015,124.580 34.015 C 124.802 34.015,124.984 33.837,124.984 33.619 C 124.984 33.401,125.160 33.223,125.376 33.223 C 125.868 33.223,126.829 32.419,126.829 32.007 C 126.829 31.837,127.007 31.630,127.225 31.546 C 127.546 31.423,127.620 30.797,127.620 28.206 C 127.620 26.114,127.528 25.075,127.352 25.184 C 127.205 25.275,127.153 25.460,127.236 25.595 C 127.319 25.730,127.262 25.840,127.109 25.840 C 126.955 25.840,126.829 25.540,126.829 25.173 C 126.829 24.806,126.651 24.437,126.434 24.354 C 126.216 24.270,126.038 24.045,126.038 23.854 C 126.038 23.662,125.831 23.298,125.578 23.045 C 125.062 22.529,124.547 21.718,124.298 21.028 C 124.206 20.775,124.043 20.567,123.937 20.567 C 123.628 20.567,122.347 19.302,122.347 18.997 C 122.347 18.845,122.050 18.721,121.688 18.721 C 121.277 18.721,121.028 18.572,121.028 18.326 C 121.028 17.996,120.501 17.930,117.864 17.930 C 115.931 17.930,114.700 17.828,114.700 17.666 C 114.700 17.521,114.878 17.403,115.096 17.403 C 115.313 17.403,115.491 17.221,115.491 16.999 C 115.491 16.777,115.669 16.527,115.887 16.443 C 116.137 16.347,116.283 15.940,116.285 15.331 C 116.289 13.866,116.586 12.386,116.843 12.546 C 116.970 12.624,117.073 12.189,117.073 11.581 C 117.073 10.885,117.225 10.362,117.482 10.175 C 117.727 9.995,117.952 9.276,118.045 8.373 C 118.130 7.546,118.303 6.933,118.428 7.010 C 118.840 7.265,118.681 4.471,118.260 4.049 C 118.042 3.832,117.864 3.306,117.864 2.882 C 117.864 2.431,117.724 2.109,117.527 2.109 C 117.342 2.109,116.987 1.872,116.739 1.582 C 116.163 0.909,113.909 0.811,113.909 1.459 M152.406 2.505 C 152.406 2.725,152.172 2.900,151.879 2.900 C 151.405 2.900,151.351 3.076,151.351 4.614 C 151.351 5.962,151.436 6.328,151.747 6.328 C 151.993 6.328,152.142 6.577,152.142 6.987 C 152.142 7.400,152.292 7.647,152.540 7.647 C 152.759 7.647,153.142 7.884,153.390 8.174 C 153.899 8.768,154.908 8.873,155.228 8.366 C 155.343 8.182,155.765 7.888,156.163 7.713 C 156.562 7.538,156.889 7.232,156.889 7.033 C 156.889 6.835,157.126 6.399,157.416 6.065 C 157.706 5.730,157.943 5.360,157.943 5.242 C 157.943 5.125,157.706 4.901,157.416 4.746 C 157.071 4.561,156.889 4.194,156.889 3.682 C 156.889 3.076,156.770 2.900,156.361 2.900 C 156.068 2.900,155.834 2.725,155.834 2.505 C 155.834 2.194,155.468 2.109,154.120 2.109 C 152.772 2.109,152.406 2.194,152.406 2.505 M322.215 2.505 C 322.215 2.725,321.981 2.900,321.688 2.900 C 321.397 2.900,321.160 3.066,321.160 3.268 C 321.160 3.470,320.982 3.703,320.765 3.787 C 320.506 3.886,320.369 4.297,320.369 4.973 C 320.369 5.650,320.232 6.061,319.974 6.160 C 319.658 6.281,319.578 6.849,319.578 8.957 L 319.578 11.602 316.274 11.602 C 313.580 11.602,312.942 11.675,312.818 11.997 C 312.734 12.215,312.441 12.393,312.167 12.393 C 311.892 12.393,311.668 12.571,311.668 12.788 C 311.668 13.006,311.490 13.184,311.272 13.184 C 310.956 13.184,310.877 13.580,310.877 15.170 C 310.877 16.692,310.969 17.191,311.272 17.307 C 311.490 17.391,311.668 17.624,311.668 17.826 C 311.668 18.029,311.846 18.194,312.063 18.194 C 312.281 18.194,312.459 18.372,312.459 18.589 C 312.459 18.807,312.637 18.985,312.854 18.985 C 313.072 18.985,313.250 19.163,313.250 19.380 C 313.250 19.657,313.528 19.776,314.173 19.776 C 314.817 19.776,315.096 19.895,315.096 20.171 C 315.096 20.475,315.433 20.567,316.546 20.567 C 317.949 20.567,318.375 20.844,317.640 21.279 C 316.859 21.741,316.858 28.477,317.639 28.477 C 317.860 28.477,317.996 28.779,317.996 29.268 C 317.996 29.796,318.128 30.059,318.392 30.059 C 318.609 30.059,318.787 30.178,318.787 30.323 C 318.787 30.727,319.792 31.641,320.237 31.641 C 320.455 31.641,320.633 31.819,320.633 32.037 C 320.633 32.551,321.585 32.551,321.783 32.037 C 321.866 31.819,322.163 31.641,322.442 31.641 C 322.721 31.641,323.018 31.463,323.101 31.246 C 323.185 31.028,323.494 30.850,323.789 30.850 C 324.181 30.850,324.324 30.678,324.324 30.204 C 324.324 29.849,324.519 29.449,324.757 29.316 C 325.099 29.125,325.162 28.793,325.060 27.734 C 324.947 26.553,325.009 26.326,325.581 25.829 C 326.164 25.322,326.219 25.106,326.117 23.707 L 326.005 22.149 327.669 22.149 C 328.973 22.149,329.334 22.063,329.334 21.753 C 329.334 21.488,329.600 21.358,330.141 21.358 C 330.615 21.358,330.880 21.249,330.783 21.092 C 330.693 20.946,330.834 20.748,331.097 20.651 C 331.360 20.554,331.672 20.315,331.789 20.120 C 331.907 19.925,332.115 19.834,332.251 19.918 C 333.107 20.447,332.465 16.980,331.575 16.271 C 331.068 15.866,330.653 15.362,330.653 15.150 C 330.653 14.939,330.475 14.766,330.257 14.766 C 330.040 14.766,329.862 14.588,329.862 14.370 C 329.862 14.085,329.569 13.975,328.807 13.975 C 328.147 13.975,327.746 13.852,327.737 13.645 C 327.612 10.927,327.655 10.203,327.950 10.090 C 328.492 9.882,328.402 6.065,327.856 6.065 C 327.587 6.065,327.488 5.920,327.584 5.669 C 327.674 5.434,327.587 5.274,327.369 5.274 C 327.168 5.274,326.925 4.918,326.829 4.483 C 326.734 4.047,326.487 3.691,326.281 3.691 C 326.075 3.691,325.906 3.514,325.906 3.296 C 325.906 3.076,325.672 2.900,325.379 2.900 C 325.086 2.900,324.852 2.725,324.852 2.505 C 324.852 2.206,324.529 2.109,323.533 2.109 C 322.537 2.109,322.215 2.206,322.215 2.505 M344.562 2.659 C 344.062 3.206,344.009 3.744,344.268 5.632 C 344.374 6.408,344.567 6.856,344.795 6.856 C 344.993 6.856,345.155 7.100,345.155 7.399 C 345.155 7.697,345.274 7.868,345.419 7.779 C 345.564 7.689,345.682 7.812,345.682 8.051 C 345.682 8.291,345.918 8.549,346.207 8.624 C 346.495 8.700,346.661 8.874,346.576 9.013 C 346.490 9.151,346.669 9.329,346.974 9.409 C 347.279 9.489,347.528 9.718,347.528 9.919 C 347.528 10.168,347.861 10.283,348.583 10.283 C 349.344 10.283,349.637 10.174,349.637 9.888 C 349.637 9.668,349.872 9.492,350.165 9.492 C 350.458 9.492,350.692 9.317,350.692 9.097 C 350.692 8.879,350.870 8.701,351.088 8.701 C 351.307 8.701,351.483 8.467,351.483 8.174 C 351.483 7.881,351.659 7.647,351.879 7.647 C 352.161 7.647,352.273 7.363,352.270 6.658 C 352.267 5.964,352.195 5.782,352.027 6.046 C 351.851 6.326,351.741 6.171,351.607 5.453 C 351.501 4.888,351.271 4.483,351.058 4.483 C 350.857 4.483,350.692 4.364,350.692 4.219 C 350.692 3.814,349.687 2.900,349.242 2.900 C 349.024 2.900,348.846 2.722,348.846 2.505 C 348.846 1.857,345.173 1.989,344.562 2.659 M79.895 3.296 C 79.895 3.516,79.660 3.691,79.367 3.691 C 79.074 3.691,78.840 3.867,78.840 4.087 C 78.840 4.305,78.662 4.483,78.444 4.483 C 78.134 4.483,78.049 4.847,78.049 6.178 C 78.049 7.333,77.923 7.999,77.653 8.268 C 77.436 8.486,77.258 8.969,77.258 9.342 C 77.258 9.769,77.111 10.020,76.862 10.020 C 76.615 10.020,76.467 10.270,76.467 10.687 C 76.467 11.054,76.289 11.423,76.071 11.506 C 75.804 11.609,75.676 12.028,75.676 12.798 C 75.676 13.459,75.510 14.103,75.280 14.333 C 74.979 14.634,74.885 15.386,74.885 17.488 C 74.885 19.697,74.963 20.277,75.280 20.399 C 75.498 20.482,75.676 20.824,75.676 21.159 C 75.676 21.810,76.537 22.719,77.370 22.947 C 78.506 23.259,78.074 23.704,76.560 23.783 C 75.053 23.862,75.034 23.873,74.850 24.779 C 74.747 25.282,74.535 25.737,74.379 25.789 C 73.916 25.944,74.015 28.918,74.489 29.100 C 74.720 29.189,74.885 29.584,74.885 30.051 C 74.885 30.586,75.016 30.850,75.280 30.850 C 75.541 30.850,75.676 31.111,75.676 31.613 C 75.676 32.190,75.824 32.412,76.287 32.529 C 76.622 32.613,77.058 32.982,77.254 33.348 C 77.450 33.715,77.832 34.015,78.102 34.015 C 78.372 34.015,78.661 34.192,78.744 34.410 C 78.830 34.632,79.222 34.806,79.637 34.806 C 80.594 34.806,81.249 35.061,81.064 35.361 C 80.984 35.490,81.703 35.597,82.663 35.597 C 83.623 35.597,84.343 35.490,84.262 35.361 C 84.077 35.061,84.732 34.806,85.689 34.806 C 86.104 34.806,86.497 34.632,86.582 34.410 C 86.669 34.183,87.063 34.015,87.505 34.015 C 87.947 34.015,88.341 33.846,88.428 33.619 C 88.511 33.401,88.710 33.223,88.870 33.223 C 89.297 33.223,89.914 32.533,89.914 32.056 C 89.914 31.828,90.092 31.641,90.310 31.641 C 90.527 31.641,90.705 31.463,90.705 31.246 C 90.705 31.026,90.940 30.850,91.233 30.850 C 91.526 30.850,91.760 30.675,91.760 30.455 C 91.760 30.237,91.938 30.059,92.156 30.059 C 92.482 30.059,92.551 29.576,92.551 27.291 C 92.551 25.005,92.482 24.522,92.156 24.522 C 91.857 24.522,91.760 24.201,91.760 23.216 C 91.760 22.071,91.647 21.801,90.837 21.014 C 90.330 20.521,89.914 19.982,89.914 19.815 C 89.914 19.649,89.736 19.512,89.519 19.512 C 89.301 19.512,89.123 19.334,89.123 19.117 C 89.123 18.899,89.005 18.721,88.860 18.721 C 88.715 18.721,88.596 18.543,88.596 18.326 C 88.596 18.108,88.418 17.930,88.200 17.930 C 87.983 17.930,87.805 17.739,87.805 17.506 C 87.805 17.233,87.661 17.138,87.399 17.238 C 87.171 17.326,86.930 17.227,86.848 17.013 C 86.767 16.803,86.475 16.560,86.198 16.472 C 85.922 16.384,85.695 16.143,85.695 15.935 C 85.695 15.679,85.398 15.557,84.773 15.557 C 83.964 15.557,83.850 15.475,83.850 14.898 C 83.850 14.535,83.968 14.239,84.113 14.239 C 84.258 14.239,84.377 14.073,84.377 13.871 C 84.377 13.669,84.540 13.442,84.738 13.365 C 84.963 13.279,85.147 12.654,85.226 11.703 C 85.295 10.864,85.489 10.133,85.656 10.077 C 85.823 10.021,85.959 9.623,85.959 9.191 C 85.959 8.760,85.854 8.472,85.725 8.551 C 85.401 8.752,85.176 7.769,85.172 6.131 C 85.168 4.617,84.566 3.691,83.586 3.691 C 83.293 3.691,83.059 3.516,83.059 3.296 C 83.059 2.988,82.707 2.900,81.477 2.900 C 80.246 2.900,79.895 2.988,79.895 3.296 M21.358 7.251 C 21.358 7.565,20.977 7.647,19.512 7.647 C 18.047 7.647,17.666 7.728,17.666 8.042 C 17.666 8.306,17.403 8.438,16.875 8.438 C 16.401 8.438,16.111 8.564,16.150 8.753 C 16.187 8.926,15.860 9.135,15.425 9.217 C 14.990 9.299,14.693 9.483,14.766 9.627 C 14.838 9.770,14.572 9.925,14.173 9.971 C 13.758 10.019,13.448 10.216,13.448 10.433 C 13.448 10.641,13.270 10.811,13.052 10.811 C 12.835 10.811,12.657 10.989,12.657 11.206 C 12.657 11.448,12.411 11.602,12.026 11.602 C 11.679 11.602,11.326 11.780,11.243 11.997 C 11.159 12.215,10.923 12.393,10.718 12.393 C 10.513 12.393,10.280 12.642,10.200 12.947 C 10.120 13.252,9.929 13.422,9.774 13.327 C 9.603 13.221,9.492 13.414,9.492 13.819 C 9.492 14.471,7.921 16.348,7.374 16.348 C 7.234 16.348,7.119 16.530,7.119 16.752 C 7.119 16.974,6.941 17.224,6.724 17.307 C 6.506 17.391,6.328 17.747,6.328 18.098 C 6.328 18.450,6.150 18.806,5.933 18.889 C 5.664 18.993,5.537 19.413,5.537 20.200 C 5.537 21.053,5.433 21.358,5.142 21.358 C 4.906 21.358,4.746 21.600,4.746 21.958 C 4.746 22.302,4.391 22.871,3.915 23.288 C 3.247 23.874,3.060 24.273,2.959 25.324 C 2.890 26.043,2.730 26.632,2.603 26.632 C 2.477 26.632,2.370 26.958,2.367 27.357 C 2.364 27.755,2.129 28.378,1.846 28.741 C 1.562 29.103,1.327 29.548,1.324 29.730 C 1.321 29.911,1.140 30.059,0.923 30.059 C 0.615 30.059,0.527 30.412,0.527 31.650 C 0.527 32.820,0.632 33.280,0.923 33.392 C 1.181 33.491,1.318 33.901,1.318 34.570 C 1.318 35.421,1.409 35.597,1.846 35.597 C 2.136 35.597,2.373 35.769,2.373 35.980 C 2.373 36.448,3.892 36.773,5.137 36.571 C 6.419 36.363,7.119 35.553,7.119 34.278 C 7.119 33.516,7.229 33.223,7.515 33.223 C 7.779 33.223,7.910 32.960,7.910 32.432 C 7.910 31.905,8.042 31.641,8.306 31.641 C 8.523 31.641,8.701 31.463,8.701 31.246 C 8.701 31.028,8.879 30.850,9.097 30.850 C 9.339 30.850,9.492 30.604,9.492 30.213 C 9.492 29.349,9.760 28.712,10.047 28.890 C 10.177 28.970,10.283 28.554,10.283 27.965 C 10.283 27.190,10.392 26.895,10.679 26.895 C 10.897 26.895,11.074 26.717,11.074 26.500 C 11.074 26.282,11.252 26.104,11.470 26.104 C 11.688 26.104,11.872 25.897,11.879 25.643 C 11.891 25.266,11.973 25.296,12.331 25.810 C 12.571 26.156,13.099 26.769,13.503 27.174 C 13.908 27.578,14.239 28.041,14.239 28.202 C 14.239 28.362,14.416 28.562,14.633 28.645 C 14.849 28.728,14.961 28.902,14.881 29.032 C 14.801 29.162,15.049 29.268,15.433 29.268 C 15.966 29.268,16.201 29.455,16.429 30.059 C 16.593 30.494,16.879 30.850,17.065 30.850 C 17.251 30.850,17.403 31.020,17.403 31.228 C 17.403 31.435,17.670 31.645,17.996 31.695 C 18.322 31.745,18.560 31.931,18.523 32.109 C 18.485 32.297,18.738 32.432,19.125 32.432 C 19.492 32.432,19.861 32.610,19.944 32.828 C 20.028 33.045,20.324 33.223,20.603 33.223 C 20.882 33.223,21.179 33.401,21.263 33.619 C 21.346 33.837,21.632 34.015,21.899 34.015 C 22.165 34.015,22.589 34.363,22.840 34.789 C 23.092 35.215,23.573 35.632,23.910 35.717 C 24.247 35.801,24.522 35.987,24.522 36.129 C 24.522 36.271,24.997 36.388,25.577 36.388 C 26.157 36.388,26.632 36.269,26.632 36.124 C 26.632 35.979,26.873 35.860,27.167 35.860 C 27.462 35.860,27.781 35.653,27.878 35.399 C 27.974 35.145,28.207 34.781,28.397 34.589 C 28.898 34.082,28.859 30.742,28.345 30.229 C 28.128 30.011,27.950 29.528,27.950 29.155 C 27.950 28.728,27.803 28.477,27.554 28.477 C 27.337 28.477,27.159 28.326,27.159 28.140 C 27.159 27.685,26.336 27.011,25.536 26.810 C 25.177 26.720,24.722 26.346,24.526 25.979 C 24.330 25.613,23.982 25.311,23.752 25.309 C 23.283 25.303,22.149 24.208,22.149 23.760 C 22.149 23.599,22.058 23.497,21.946 23.533 C 21.834 23.570,21.567 23.451,21.353 23.270 C 21.138 23.088,20.689 22.732,20.355 22.478 C 19.756 22.024,19.769 22.018,21.212 22.107 C 22.413 22.182,22.676 22.122,22.676 21.778 C 22.676 21.547,22.795 21.358,22.940 21.358 C 23.085 21.358,23.204 21.180,23.204 20.962 C 23.204 20.687,23.481 20.567,24.118 20.567 C 24.823 20.567,24.998 20.476,24.881 20.171 C 24.760 19.855,24.985 19.772,26.010 19.755 C 26.714 19.744,27.142 19.674,26.959 19.601 C 26.368 19.362,26.903 18.985,27.834 18.985 C 28.446 18.985,28.741 18.862,28.741 18.607 C 28.741 18.390,29.051 18.193,29.466 18.145 C 30.041 18.079,30.209 17.908,30.277 17.316 C 30.336 16.798,30.477 16.614,30.738 16.715 C 31.045 16.833,31.114 16.451,31.114 14.626 C 31.114 13.002,31.026 12.411,30.791 12.459 C 30.613 12.495,30.426 12.228,30.377 11.866 C 30.327 11.503,30.136 11.088,29.953 10.943 C 29.769 10.798,29.538 10.353,29.439 9.954 C 29.318 9.468,29.086 9.229,28.736 9.229 C 28.449 9.229,28.214 9.058,28.214 8.849 C 28.214 8.601,27.872 8.441,27.225 8.388 C 26.606 8.337,26.261 8.182,26.302 7.976 C 26.346 7.757,26.016 7.647,25.313 7.647 C 24.551 7.647,24.258 7.537,24.258 7.251 C 24.258 6.948,23.921 6.856,22.808 6.856 C 21.695 6.856,21.358 6.948,21.358 7.251 M173.830 9.558 C 173.874 9.781,173.532 9.888,172.778 9.888 C 171.833 9.888,171.683 9.959,171.807 10.349 C 171.888 10.605,171.820 10.811,171.654 10.811 C 171.182 10.811,170.707 11.404,170.492 12.261 C 170.383 12.693,170.155 13.135,169.986 13.243 C 169.756 13.389,169.761 13.441,170.007 13.444 C 170.188 13.446,170.336 13.566,170.336 13.711 C 170.336 13.856,170.146 13.975,169.912 13.975 C 169.644 13.975,169.544 14.120,169.641 14.370 C 169.730 14.603,169.644 14.766,169.433 14.766 C 168.919 14.766,168.754 15.371,168.754 17.264 C 168.754 18.500,168.652 18.967,168.359 19.080 C 167.717 19.326,167.798 22.683,168.450 22.853 C 168.802 22.945,168.903 23.156,168.815 23.616 C 168.735 24.039,168.836 24.306,169.120 24.415 C 169.354 24.505,169.545 24.844,169.545 25.169 C 169.545 25.494,169.753 26.005,170.007 26.305 C 171.233 27.755,171.391 27.975,171.391 28.235 C 171.391 28.572,172.053 29.268,172.373 29.268 C 172.499 29.268,172.893 29.619,173.249 30.048 C 173.605 30.477,174.020 30.833,174.172 30.839 C 174.324 30.845,174.739 31.201,175.095 31.630 C 175.520 32.143,175.993 32.414,176.475 32.421 C 176.878 32.427,177.277 32.610,177.360 32.828 C 177.445 33.050,177.838 33.223,178.253 33.223 C 179.210 33.223,179.865 33.478,179.680 33.778 C 179.598 33.910,180.529 34.015,181.791 34.015 C 183.455 34.015,184.030 33.928,183.982 33.685 C 183.942 33.489,184.253 33.323,184.746 33.275 C 185.462 33.205,185.600 33.068,185.748 32.279 C 185.843 31.775,186.033 31.433,186.170 31.518 C 186.308 31.603,186.421 31.310,186.421 30.866 C 186.421 30.325,186.290 30.059,186.025 30.059 C 185.761 30.059,185.630 29.796,185.630 29.268 C 185.630 28.741,185.498 28.477,185.234 28.477 C 185.014 28.477,184.838 28.243,184.838 27.950 C 184.838 27.657,184.663 27.423,184.443 27.423 C 184.225 27.423,184.066 27.334,184.089 27.225 C 184.215 26.631,183.626 26.085,182.700 25.937 C 182.136 25.847,181.674 25.684,181.674 25.576 C 181.674 25.468,181.311 25.306,180.866 25.217 C 180.421 25.128,180.122 24.950,180.202 24.822 C 180.281 24.693,179.874 24.512,179.297 24.420 C 178.670 24.320,178.275 24.121,178.313 23.926 C 178.353 23.727,178.075 23.595,177.606 23.589 C 177.181 23.583,176.786 23.435,176.727 23.259 C 176.666 23.077,176.857 22.940,177.170 22.940 C 177.482 22.940,177.719 22.770,177.719 22.544 C 177.719 22.298,177.968 22.149,178.378 22.149 C 178.789 22.149,179.038 22.000,179.038 21.753 C 179.038 21.536,179.216 21.358,179.433 21.358 C 179.651 21.358,179.829 21.180,179.829 20.962 C 179.829 20.745,179.941 20.567,180.079 20.567 C 180.567 20.567,181.674 19.311,181.674 18.757 C 181.674 18.447,181.838 18.194,182.037 18.194 C 182.522 18.194,182.744 16.948,182.550 15.312 C 182.447 14.438,182.268 13.975,182.033 13.975 C 181.825 13.975,181.674 13.695,181.674 13.309 C 181.674 12.860,181.480 12.570,181.075 12.416 C 180.746 12.291,180.311 11.878,180.108 11.499 C 179.844 11.006,179.528 10.811,178.993 10.811 C 178.521 10.811,178.247 10.672,178.247 10.434 C 178.247 10.226,177.980 10.016,177.653 9.966 C 177.327 9.916,177.090 9.730,177.126 9.552 C 177.173 9.323,176.691 9.229,175.478 9.229 C 174.247 9.229,173.783 9.322,173.830 9.558 M251.549 12.788 C 251.549 13.065,251.271 13.184,250.626 13.184 C 249.982 13.184,249.703 13.303,249.703 13.579 C 249.703 13.872,249.397 13.975,248.525 13.975 C 247.586 13.975,247.378 14.055,247.499 14.370 C 247.618 14.682,247.422 14.766,246.567 14.766 C 245.540 14.766,245.485 14.806,245.485 15.557 C 245.485 16.055,245.349 16.348,245.120 16.348 C 244.919 16.348,244.697 16.571,244.626 16.843 C 244.430 17.590,243.202 17.335,242.339 16.369 C 241.940 15.922,241.476 15.557,241.308 15.557 C 241.140 15.557,241.002 15.379,241.002 15.162 C 241.002 14.942,240.768 14.766,240.475 14.766 C 240.182 14.766,239.947 14.590,239.947 14.370 C 239.947 14.054,239.553 13.975,237.978 13.975 C 236.336 13.975,236.034 14.041,236.160 14.370 C 236.280 14.682,236.084 14.766,235.229 14.766 C 234.442 14.766,234.146 14.874,234.146 15.162 C 234.146 15.421,233.887 15.557,233.395 15.557 C 232.872 15.557,232.460 15.795,232.042 16.341 C 231.712 16.772,231.220 17.196,230.949 17.282 C 230.678 17.368,230.384 17.727,230.295 18.080 C 230.206 18.432,229.956 18.721,229.739 18.721 C 229.486 18.721,229.402 18.872,229.505 19.141 C 229.612 19.421,229.490 19.607,229.138 19.699 C 228.721 19.808,228.609 20.058,228.609 20.880 C 228.609 21.456,228.432 22.100,228.214 22.318 C 227.996 22.536,227.818 22.943,227.818 23.223 C 227.818 23.502,227.640 23.731,227.423 23.731 C 227.201 23.731,227.027 23.966,227.027 24.267 C 227.027 24.561,226.849 24.871,226.632 24.954 C 226.341 25.066,226.236 25.524,226.236 26.679 C 226.236 27.725,226.368 28.384,226.632 28.647 C 226.849 28.864,227.027 29.384,227.027 29.801 C 227.027 30.246,227.215 30.666,227.482 30.815 C 227.732 30.955,227.940 31.341,227.943 31.673 C 227.948 32.147,228.149 32.321,228.873 32.480 C 231.478 33.053,233.619 31.773,233.619 29.644 C 233.619 28.763,233.720 28.477,234.030 28.477 C 234.256 28.477,234.371 28.364,234.286 28.226 C 234.098 27.922,234.930 26.895,235.363 26.895 C 235.752 26.895,235.992 26.284,235.992 25.292 C 235.992 24.868,236.101 24.522,236.235 24.522 C 236.368 24.522,236.556 24.166,236.651 23.731 C 236.822 22.953,238.365 22.478,238.365 23.204 C 238.365 23.546,239.342 24.522,239.684 24.522 C 239.829 24.522,239.947 24.700,239.947 24.918 C 239.947 25.135,240.125 25.313,240.343 25.313 C 240.560 25.313,240.738 25.491,240.738 25.709 C 240.738 25.926,240.916 26.104,241.134 26.104 C 241.351 26.104,241.529 26.282,241.529 26.500 C 241.529 26.719,241.764 26.895,242.057 26.895 C 242.350 26.895,242.584 27.071,242.584 27.291 C 242.584 27.598,242.932 27.686,244.138 27.686 C 245.276 27.686,245.732 27.580,245.844 27.291 C 245.927 27.073,246.236 26.895,246.531 26.895 C 246.831 26.895,247.067 26.721,247.067 26.500 C 247.067 26.251,247.317 26.104,247.741 26.104 C 248.112 26.104,248.345 25.989,248.258 25.848 C 248.171 25.707,248.400 25.517,248.768 25.425 C 249.135 25.332,249.370 25.150,249.289 25.019 C 249.209 24.889,249.328 24.711,249.555 24.624 C 249.782 24.537,249.967 24.300,249.967 24.098 C 249.967 23.896,250.204 23.731,250.494 23.731 C 250.784 23.731,251.022 23.614,251.022 23.470 C 251.022 22.527,252.728 21.742,253.036 22.544 C 253.125 22.776,253.520 22.940,253.990 22.940 C 254.785 22.940,256.559 24.387,256.559 25.036 C 256.559 25.189,256.684 25.313,256.836 25.313 C 256.989 25.313,257.238 25.669,257.390 26.104 C 257.541 26.539,257.772 26.895,257.903 26.895 C 258.034 26.895,258.141 27.124,258.141 27.404 C 258.141 27.683,258.319 28.090,258.537 28.308 C 258.754 28.525,258.932 28.945,258.932 29.240 C 258.932 29.535,259.173 29.906,259.467 30.063 C 259.761 30.221,259.932 30.462,259.847 30.600 C 259.762 30.738,259.877 30.850,260.103 30.850 C 260.329 30.850,260.514 31.002,260.514 31.187 C 260.514 31.626,261.461 32.432,261.976 32.432 C 262.196 32.432,262.445 32.610,262.528 32.828 C 262.616 33.056,263.010 33.223,263.458 33.223 C 263.895 33.223,264.167 33.111,264.079 32.968 C 263.992 32.827,264.213 32.638,264.571 32.548 C 264.929 32.458,265.286 32.218,265.365 32.013 C 265.443 31.809,265.689 31.641,265.911 31.641 C 266.245 31.641,266.315 31.211,266.315 29.145 C 266.315 27.034,266.254 26.672,265.920 26.800 C 265.613 26.917,265.524 26.738,265.524 26.001 C 265.524 25.331,265.407 25.049,265.129 25.049 C 264.762 25.049,264.610 24.592,264.713 23.797 C 264.737 23.616,264.586 23.467,264.378 23.467 C 264.169 23.467,263.925 23.171,263.834 22.808 C 263.743 22.446,263.493 22.149,263.278 22.149 C 263.063 22.149,262.887 21.912,262.887 21.622 C 262.887 21.332,262.770 21.094,262.627 21.094 C 262.483 21.094,262.291 20.627,262.200 20.056 C 262.109 19.485,261.870 18.954,261.670 18.878 C 261.469 18.801,261.305 18.549,261.305 18.318 C 261.305 18.088,261.179 17.977,261.024 18.073 C 260.869 18.169,260.678 17.999,260.598 17.696 C 260.519 17.393,260.349 17.210,260.221 17.289 C 260.092 17.369,259.987 17.190,259.987 16.891 C 259.987 16.584,259.815 16.348,259.591 16.348 C 259.374 16.348,259.196 16.170,259.196 15.953 C 259.196 15.726,258.958 15.557,258.640 15.557 C 258.255 15.557,258.131 15.436,258.236 15.162 C 258.350 14.865,258.193 14.766,257.605 14.766 C 257.099 14.766,256.823 14.632,256.823 14.386 C 256.823 14.127,256.465 13.979,255.702 13.924 C 255.086 13.880,254.615 13.724,254.656 13.579 C 254.697 13.434,254.282 13.255,253.733 13.180 C 253.134 13.099,252.762 12.915,252.802 12.719 C 252.840 12.529,252.592 12.393,252.208 12.393 C 251.798 12.393,251.549 12.542,251.549 12.788 M384.322 14.256 C 384.418 14.411,384.247 14.603,383.942 14.683 C 383.638 14.762,383.388 14.930,383.388 15.056 C 383.388 15.389,381.489 17.283,381.233 17.205 C 381.113 17.169,381.015 17.311,381.015 17.522 C 381.015 17.732,380.855 17.999,380.660 18.115 C 380.464 18.231,380.231 18.791,380.142 19.359 C 380.052 19.927,379.847 20.474,379.685 20.574 C 379.314 20.804,379.296 29.021,379.666 29.249 C 379.805 29.335,380.000 29.731,380.100 30.128 C 380.200 30.525,380.387 30.850,380.516 30.850 C 380.646 30.850,380.751 31.002,380.751 31.187 C 380.751 31.599,382.201 33.223,382.569 33.223 C 382.715 33.223,382.930 33.383,383.046 33.579 C 383.642 34.585,386.247 34.288,386.467 33.189 C 386.550 32.773,386.781 32.432,386.981 32.432 C 387.208 32.432,387.343 32.137,387.343 31.641 C 387.343 31.114,387.475 30.850,387.739 30.850 C 388.058 30.850,388.140 30.405,388.165 28.543 C 388.182 27.274,388.253 26.473,388.322 26.763 C 388.392 27.053,388.556 27.403,388.687 27.541 C 388.818 27.679,388.926 28.111,388.926 28.502 C 388.926 28.892,389.103 29.280,389.321 29.364 C 389.601 29.471,389.717 29.907,389.717 30.850 C 389.717 31.794,389.833 32.230,390.112 32.337 C 390.330 32.421,390.508 32.654,390.508 32.856 C 390.508 33.058,390.686 33.223,390.903 33.223 C 391.123 33.223,391.299 33.458,391.299 33.751 C 391.299 34.041,391.433 34.278,391.598 34.278 C 391.763 34.278,392.159 34.561,392.480 34.907 C 392.800 35.252,393.318 35.616,393.631 35.715 C 393.943 35.815,394.199 36.006,394.199 36.142 C 394.199 36.277,394.621 36.388,395.138 36.388 C 395.654 36.388,396.008 36.277,395.925 36.143 C 395.842 36.008,396.025 35.818,396.333 35.721 C 397.098 35.478,397.895 34.763,397.719 34.477 C 397.639 34.348,397.823 34.178,398.128 34.098 C 398.834 33.913,398.933 32.072,398.257 31.694 C 397.867 31.476,397.867 31.443,398.257 31.293 C 398.491 31.204,398.682 30.834,398.682 30.471 C 398.682 29.994,398.573 29.854,398.286 29.964 C 397.995 30.076,397.891 29.928,397.891 29.404 C 397.891 28.904,397.727 28.649,397.342 28.548 C 396.964 28.449,396.833 28.252,396.922 27.914 C 396.997 27.624,396.912 27.423,396.714 27.423 C 396.334 27.423,396.052 26.055,396.048 24.192 C 396.046 23.256,395.945 22.940,395.649 22.940 C 395.389 22.940,395.254 22.679,395.254 22.177 C 395.254 21.742,395.084 21.349,394.858 21.263 C 394.641 21.179,394.463 20.823,394.463 20.472 C 394.463 20.120,394.285 19.764,394.067 19.681 C 393.850 19.597,393.672 19.347,393.672 19.125 C 393.672 18.903,393.553 18.721,393.408 18.721 C 393.263 18.721,393.144 18.543,393.144 18.326 C 393.144 18.108,392.966 17.930,392.749 17.930 C 392.531 17.930,392.353 17.752,392.353 17.535 C 392.353 17.317,392.238 17.139,392.097 17.139 C 391.955 17.139,391.306 16.605,390.653 15.953 C 389.848 15.147,389.244 14.766,388.772 14.766 C 388.264 14.766,388.119 14.660,388.230 14.370 C 388.357 14.039,388.038 13.975,386.265 13.975 C 384.832 13.975,384.204 14.066,384.322 14.256 M344.693 14.948 C 344.947 15.014,345.363 15.014,345.616 14.948 C 345.870 14.881,345.662 14.827,345.155 14.827 C 344.647 14.827,344.440 14.881,344.693 14.948 M344.628 15.490 C 343.458 15.629,342.783 16.347,342.778 17.458 C 342.773 18.721,342.509 19.512,342.092 19.512 C 341.555 19.512,341.585 22.760,342.126 23.301 C 342.346 23.521,342.598 24.063,342.686 24.507 C 342.775 24.950,342.942 25.313,343.057 25.313 C 343.173 25.313,343.345 25.669,343.441 26.104 C 343.537 26.539,343.724 26.895,343.857 26.895 C 343.991 26.895,344.100 27.065,344.100 27.272 C 344.100 27.480,344.367 27.690,344.693 27.740 C 345.020 27.790,345.257 27.976,345.221 28.154 C 345.175 28.378,345.600 28.477,346.605 28.477 C 347.718 28.477,348.055 28.385,348.055 28.082 C 348.055 27.806,348.334 27.686,348.978 27.686 C 349.820 27.686,349.901 27.619,349.901 26.923 C 349.901 26.489,350.071 26.095,350.297 26.009 C 350.619 25.885,350.692 25.245,350.692 22.537 C 350.692 20.563,350.593 19.279,350.447 19.369 C 350.313 19.452,350.123 19.269,350.026 18.963 C 349.840 18.377,348.985 17.406,348.649 17.398 C 348.346 17.391,347.264 16.181,347.264 15.849 C 347.264 15.689,347.037 15.557,346.759 15.557 C 346.480 15.557,346.095 15.517,345.902 15.469 C 345.708 15.420,345.135 15.430,344.628 15.490 M148.451 15.953 C 148.451 16.229,148.173 16.348,147.528 16.348 C 146.676 16.348,146.605 16.410,146.605 17.147 C 146.605 17.615,146.441 18.010,146.210 18.098 C 145.992 18.182,145.814 18.538,145.814 18.889 C 145.814 19.241,145.651 19.591,145.451 19.668 C 145.230 19.753,145.018 20.422,144.910 21.374 C 144.813 22.235,144.620 22.940,144.483 22.940 C 144.345 22.940,144.232 23.652,144.232 24.522 C 144.232 25.401,144.349 26.104,144.496 26.104 C 144.641 26.104,144.759 26.397,144.759 26.754 C 144.759 27.133,144.978 27.521,145.284 27.685 C 145.573 27.839,145.796 28.051,145.780 28.156 C 145.635 29.122,145.830 29.268,147.264 29.268 C 148.378 29.268,148.715 29.176,148.715 28.873 C 148.715 28.624,148.965 28.477,149.389 28.477 C 149.775 28.477,149.994 28.364,149.900 28.212 C 149.810 28.066,149.921 27.875,150.148 27.788 C 150.375 27.701,150.560 27.465,150.560 27.262 C 150.560 27.060,150.729 26.895,150.935 26.895 C 151.141 26.895,151.388 26.538,151.484 26.102 C 151.580 25.666,151.767 25.376,151.900 25.458 C 152.033 25.541,152.142 25.255,152.142 24.823 C 152.142 24.392,151.994 23.979,151.813 23.906 C 151.549 23.799,151.549 23.769,151.813 23.752 C 151.994 23.740,152.142 23.553,152.142 23.336 C 152.142 23.118,152.307 22.940,152.507 22.940 C 153.282 22.940,153.274 19.099,152.499 18.802 C 152.303 18.726,152.137 18.410,152.130 18.100 C 152.123 17.789,151.813 17.297,151.441 17.007 C 151.069 16.717,150.573 16.272,150.340 16.018 C 149.810 15.442,148.451 15.394,148.451 15.953 M287.146 15.807 C 287.146 15.945,286.849 16.377,286.486 16.768 C 286.124 17.160,285.827 17.403,285.827 17.309 C 285.827 17.216,285.353 17.614,284.773 18.194 L 283.718 19.249 283.718 21.857 C 283.718 23.933,283.799 24.497,284.113 24.617 C 284.331 24.701,284.509 25.070,284.509 25.437 C 284.509 25.854,284.657 26.104,284.904 26.104 C 285.122 26.104,285.300 26.333,285.300 26.613 C 285.300 26.892,285.478 27.299,285.695 27.517 C 285.913 27.734,286.091 28.026,286.091 28.164 C 286.091 28.302,286.340 28.481,286.645 28.561 C 286.949 28.640,287.126 28.824,287.036 28.968 C 286.947 29.112,287.143 29.272,287.471 29.322 C 287.800 29.372,288.039 29.558,288.003 29.736 C 287.877 30.352,292.839 30.167,293.474 29.532 C 293.764 29.242,294.001 28.886,294.001 28.741 C 294.001 28.596,294.178 28.477,294.394 28.477 C 295.914 28.477,296.732 21.323,295.299 20.556 C 294.986 20.388,294.813 20.102,294.895 19.887 C 294.977 19.676,294.883 19.512,294.681 19.512 C 294.484 19.512,294.245 19.204,294.151 18.828 C 293.961 18.072,292.412 16.348,291.923 16.348 C 291.752 16.348,291.543 16.170,291.460 15.953 C 291.286 15.499,287.146 15.360,287.146 15.807 M364.140 17.535 C 364.140 17.752,363.988 17.930,363.803 17.930 C 363.425 17.930,362.558 18.850,362.558 19.252 C 362.558 19.395,362.380 19.512,362.162 19.512 C 361.942 19.512,361.767 19.747,361.767 20.040 C 361.767 20.333,361.591 20.567,361.371 20.567 C 361.058 20.567,360.976 20.939,360.980 22.347 C 360.982 23.420,361.072 23.987,361.207 23.775 C 361.505 23.304,361.767 23.972,361.767 25.203 C 361.767 25.792,361.892 26.104,362.129 26.104 C 362.329 26.104,362.563 26.460,362.650 26.895 C 362.743 27.359,362.974 27.686,363.210 27.686 C 363.431 27.686,363.612 27.864,363.612 28.082 C 363.612 28.299,363.794 28.477,364.016 28.477 C 364.238 28.477,364.488 28.655,364.572 28.873 C 364.655 29.090,364.942 29.268,365.210 29.268 C 365.477 29.268,365.791 29.433,365.906 29.634 C 366.022 29.836,366.355 30.050,366.645 30.112 C 366.935 30.173,367.142 30.364,367.106 30.536 C 367.061 30.752,367.541 30.850,368.638 30.850 C 369.517 30.850,370.170 30.744,370.090 30.614 C 369.912 30.327,370.549 30.059,371.412 30.059 C 371.803 30.059,372.050 29.906,372.050 29.664 C 372.050 29.446,372.226 29.268,372.441 29.268 C 372.655 29.268,372.906 28.972,372.997 28.609 C 373.088 28.247,373.327 27.950,373.529 27.950 C 374.196 27.950,374.040 23.299,373.361 22.936 C 373.067 22.779,372.896 22.537,372.981 22.399 C 373.066 22.262,372.951 22.149,372.725 22.149 C 372.461 22.149,372.314 21.910,372.314 21.482 C 372.314 21.114,372.147 20.750,371.944 20.672 C 371.741 20.594,371.515 20.301,371.442 20.021 C 371.368 19.741,371.119 19.512,370.888 19.512 C 370.657 19.512,370.468 19.334,370.468 19.117 C 370.468 18.871,370.219 18.721,369.809 18.721 C 369.399 18.721,369.150 18.572,369.150 18.326 C 369.150 18.106,368.915 17.930,368.622 17.930 C 368.329 17.930,368.095 17.754,368.095 17.535 C 368.095 17.218,367.699 17.139,366.117 17.139 C 364.535 17.139,364.140 17.218,364.140 17.535 M52.113 19.117 C 52.228 19.416,52.065 19.512,51.445 19.512 C 50.893 19.512,50.626 19.641,50.626 19.908 C 50.626 20.182,50.350 20.303,49.725 20.303 C 48.979 20.303,48.725 20.463,48.253 21.226 C 47.939 21.734,47.514 22.149,47.309 22.149 C 47.103 22.149,46.935 22.327,46.935 22.544 C 46.935 22.762,46.757 22.940,46.539 22.940 C 46.292 22.940,46.144 23.190,46.144 23.607 C 46.144 23.975,45.966 24.343,45.748 24.427 C 45.442 24.544,45.353 25.055,45.353 26.675 C 45.353 27.932,45.453 28.710,45.603 28.617 C 45.741 28.532,45.936 28.911,46.037 29.459 C 46.228 30.491,47.199 31.641,47.879 31.641 C 48.094 31.641,48.338 31.819,48.421 32.037 C 48.505 32.254,48.802 32.432,49.081 32.432 C 49.360 32.432,49.656 32.610,49.740 32.828 C 49.849 33.113,50.295 33.223,51.332 33.223 C 52.262 33.223,52.914 33.083,53.169 32.828 C 53.386 32.610,53.951 32.432,54.424 32.432 C 55.071 32.432,55.371 32.269,55.636 31.773 C 55.830 31.411,56.145 31.114,56.337 31.114 C 56.528 31.114,56.667 30.906,56.646 30.653 C 56.566 29.699,56.703 29.268,57.086 29.268 C 57.304 29.268,57.482 29.090,57.482 28.873 C 57.482 28.655,57.660 28.477,57.877 28.477 C 58.201 28.477,58.273 28.023,58.273 25.972 C 58.273 23.921,58.201 23.467,57.877 23.467 C 57.660 23.467,57.468 23.260,57.451 23.006 C 57.435 22.752,57.393 22.426,57.360 22.281 C 57.326 22.136,57.280 21.869,57.258 21.688 C 57.236 21.506,57.039 21.358,56.820 21.358 C 56.601 21.358,56.219 21.121,55.970 20.831 C 55.722 20.541,55.308 20.303,55.050 20.303 C 54.792 20.303,54.611 20.155,54.647 19.974 C 54.685 19.786,54.391 19.607,53.967 19.559 C 53.449 19.499,53.266 19.359,53.366 19.097 C 53.471 18.824,53.298 18.721,52.736 18.721 C 52.156 18.721,51.999 18.820,52.113 19.117 M83.470 24.909 C 83.937 25.262,83.830 25.297,82.252 25.305 C 81.128 25.310,80.343 25.178,80.011 24.926 C 79.544 24.573,79.650 24.538,81.228 24.530 C 82.352 24.525,83.137 24.658,83.470 24.909 " stroke="none" fill="currentColor" fill-rule="evenodd"></path></g></svg>